<svg xmlns="http://www.w3.org/2000/svg" xmlns:xlink="http://www.w3.org/1999/xlink" width="500" zoomAndPan="magnify" viewBox="0 0 375 374.999991" height="500" preserveAspectRatio="xMidYMid meet" version="1.2"><g id="3581a84eaf"><path style=" stroke:none;fill-rule:nonzero;fill:#040606;fill-opacity:1;" d="M 262.1875 229.621094 C 265.503906 231.515625 269.734375 230.378906 271.628906 227.0625 C 273.523438 223.75 272.386719 219.546875 269.101562 217.652344 L 209.023438 182.949219 L 209.023438 106.6875 C 209.023438 102.867188 205.929688 99.773438 202.109375 99.773438 C 198.289062 99.773438 195.195312 102.867188 195.195312 106.6875 L 195.195312 190.9375 L 262.1875 229.621094 "/><path style=" stroke:none;fill-rule:nonzero;fill:#040606;fill-opacity:1;" d="M 125.238281 187.875 L 78.796875 187.875 C 78.796875 119.285156 134.394531 63.675781 202.964844 63.675781 C 271.53125 63.675781 327.128906 119.285156 327.128906 187.875 C 327.128906 256.464844 271.53125 312.074219 202.964844 312.074219 C 189.230469 312.074219 175.59375 309.800781 162.585938 305.316406 C 155.167969 302.757812 147.050781 306.703125 144.496094 314.15625 C 141.9375 321.578125 145.917969 329.695312 153.335938 332.25 C 233.050781 359.660156 319.898438 317.25 347.300781 237.515625 C 374.703125 157.78125 332.335938 70.941406 252.621094 43.5 C 172.910156 16.089844 86.058594 58.5 58.65625 138.234375 C 53.164062 154.210938 50.355469 170.980469 50.355469 187.875 L 3.914062 187.875 C 1.738281 187.875 0 189.613281 0 191.789062 C 0 192.769531 0.378906 193.71875 1.042969 194.445312 L 61.71875 259.9375 C 63.171875 261.515625 65.664062 261.609375 67.242188 260.125 C 67.308594 260.0625 67.371094 260 67.433594 259.9375 L 128.109375 194.445312 C 129.59375 192.863281 129.5 190.371094 127.921875 188.917969 C 127.195312 188.253906 126.25 187.875 125.238281 187.875 "/></g></svg>