<svg xmlns="http://www.w3.org/2000/svg" xmlns:xlink="http://www.w3.org/1999/xlink" width="500" zoomAndPan="magnify" viewBox="0 0 375 374.999991" height="500" preserveAspectRatio="xMidYMid meet" version="1.2"><defs><clipPath id="2841d97079"><path d="M 5.453125 0 L 369.203125 0 L 369.203125 375 L 5.453125 375 Z M 5.453125 0 "/></clipPath></defs><g id="f98aa1bfa5"><g clip-rule="nonzero" clip-path="url(#2841d97079)"><path style=" stroke:none;fill-rule:nonzero;fill:#ffffff;fill-opacity:1;" d="M 369.46875 95.898438 L 369.246094 94.851562 C 369.023438 93.984375 368.726562 93.148438 368.347656 92.34375 C 368.347656 91.96875 367.972656 91.632812 367.785156 91.257812 C 367.3125 90.488281 366.777344 89.765625 366.175781 89.085938 C 366.175781 89.085938 365.953125 88.75 365.800781 88.601562 L 322.097656 45.007812 C 321.480469 44.394531 320.8125 43.847656 320.089844 43.363281 C 319.367188 42.882812 318.605469 42.476562 317.804688 42.144531 C 317 41.8125 316.171875 41.5625 315.320312 41.394531 C 314.46875 41.222656 313.609375 41.140625 312.742188 41.140625 C 311.875 41.140625 311.011719 41.222656 310.160156 41.394531 C 309.308594 41.5625 308.484375 41.8125 307.679688 42.144531 C 306.878906 42.476562 306.117188 42.882812 305.394531 43.363281 C 304.671875 43.847656 304 44.394531 303.386719 45.007812 C 302.96875 45.46875 302.582031 45.957031 302.226562 46.464844 C 302.226562 46.464844 301.851562 46.878906 301.703125 47.101562 C 301.039062 48.15625 300.53125 49.28125 300.1875 50.476562 C 299.839844 51.671875 299.667969 52.890625 299.667969 54.136719 C 299.667969 55.382812 299.839844 56.601562 300.1875 57.800781 C 300.53125 58.996094 301.039062 60.121094 301.703125 61.171875 C 301.703125 61.171875 301.703125 61.433594 301.925781 61.585938 C 302.230469 62 302.554688 62.402344 302.902344 62.78125 C 303.125 63.042969 303.351562 63.378906 303.613281 63.640625 L 324.753906 84.785156 L 284.976562 84.785156 L 284.976562 15.035156 C 284.996094 14.636719 284.996094 14.234375 284.976562 13.835938 C 284.96875 12.042969 284.605469 10.320312 283.890625 8.671875 C 283.410156 7.476562 282.765625 6.375 281.960938 5.367188 C 281.15625 4.355469 280.222656 3.484375 279.160156 2.75 C 278.101562 2.015625 276.957031 1.449219 275.730469 1.050781 C 274.503906 0.648438 273.246094 0.433594 271.953125 0.402344 C 271.0625 0.414062 270.175781 0.503906 269.296875 0.664062 L 119.320312 0.664062 C 118.027344 0.667969 116.734375 0.734375 115.449219 0.863281 C 114.160156 0.992188 112.882812 1.183594 111.613281 1.4375 C 110.34375 1.691406 109.089844 2.007812 107.851562 2.386719 C 106.613281 2.761719 105.398438 3.199219 104.203125 3.695312 C 103.007812 4.195312 101.839844 4.746094 100.699219 5.359375 C 99.558594 5.96875 98.449219 6.636719 97.375 7.355469 C 96.296875 8.074219 95.261719 8.847656 94.261719 9.667969 C 93.261719 10.488281 92.304688 11.359375 91.390625 12.273438 C 90.472656 13.191406 89.605469 14.148438 88.785156 15.148438 C 87.964844 16.148438 87.195312 17.1875 86.476562 18.265625 C 85.757812 19.339844 85.09375 20.449219 84.484375 21.589844 C 83.871094 22.730469 83.320312 23.902344 82.824219 25.097656 C 82.328125 26.292969 81.890625 27.507812 81.515625 28.746094 C 81.140625 29.984375 80.824219 31.238281 80.570312 32.507812 C 80.320312 33.777344 80.128906 35.054688 80 36.34375 C 79.871094 37.632812 79.808594 38.921875 79.808594 40.21875 L 79.808594 133.992188 L 67.496094 121.679688 C 66.25 120.464844 64.824219 119.53125 63.207031 118.882812 C 61.59375 118.234375 59.917969 117.917969 58.179688 117.9375 C 56.441406 117.921875 54.765625 118.242188 53.148438 118.886719 C 51.535156 119.535156 50.105469 120.46875 48.859375 121.679688 L 9.570312 161.082031 C 8.949219 161.691406 8.390625 162.355469 7.902344 163.078125 C 7.414062 163.796875 7 164.558594 6.664062 165.363281 C 6.324219 166.167969 6.070312 166.996094 5.898438 167.847656 C 5.726562 168.703125 5.640625 169.566406 5.640625 170.4375 C 5.640625 171.308594 5.726562 172.171875 5.898438 173.023438 C 6.070312 173.878906 6.324219 174.707031 6.664062 175.511719 C 7 176.3125 7.414062 177.074219 7.902344 177.796875 C 8.390625 178.515625 8.949219 179.183594 9.570312 179.792969 L 79.808594 249.914062 L 79.808594 335.082031 C 79.808594 336.375 79.875 337.664062 80.003906 338.953125 C 80.132812 340.238281 80.324219 341.515625 80.578125 342.785156 C 80.832031 344.054688 81.148438 345.304688 81.523438 346.542969 C 81.902344 347.78125 82.339844 348.996094 82.835938 350.191406 C 83.332031 351.386719 83.882812 352.554688 84.496094 353.695312 C 85.105469 354.835938 85.769531 355.941406 86.488281 357.015625 C 87.207031 358.09375 87.976562 359.128906 88.800781 360.128906 C 89.621094 361.128906 90.488281 362.085938 91.402344 363 C 92.316406 363.914062 93.273438 364.785156 94.273438 365.605469 C 95.273438 366.425781 96.3125 367.195312 97.386719 367.914062 C 98.460938 368.632812 99.570312 369.296875 100.710938 369.910156 C 101.847656 370.519531 103.015625 371.074219 104.210938 371.570312 C 105.40625 372.066406 106.621094 372.5 107.859375 372.878906 C 109.097656 373.253906 110.347656 373.570312 111.617188 373.824219 C 112.886719 374.078125 114.164062 374.269531 115.449219 374.398438 C 116.738281 374.527344 118.027344 374.59375 119.320312 374.597656 L 330.140625 374.597656 C 331.4375 374.59375 332.726562 374.53125 334.015625 374.402344 C 335.300781 374.273438 336.578125 374.085938 337.847656 373.832031 C 339.117188 373.578125 340.371094 373.261719 341.609375 372.886719 C 342.847656 372.511719 344.0625 372.074219 345.257812 371.578125 C 346.453125 371.082031 347.621094 370.53125 348.761719 369.917969 C 349.902344 369.308594 351.011719 368.644531 352.085938 367.925781 C 353.160156 367.207031 354.199219 366.4375 355.199219 365.617188 C 356.199219 364.792969 357.15625 363.925781 358.070312 363.011719 C 358.988281 362.097656 359.855469 361.140625 360.675781 360.140625 C 361.496094 359.140625 362.265625 358.101562 362.984375 357.027344 C 363.703125 355.949219 364.371094 354.84375 364.980469 353.703125 C 365.589844 352.5625 366.144531 351.394531 366.640625 350.199219 C 367.132812 349.003906 367.570312 347.785156 367.945312 346.546875 C 368.324219 345.308594 368.636719 344.058594 368.890625 342.789062 C 369.144531 341.519531 369.335938 340.242188 369.464844 338.953125 C 369.589844 337.667969 369.65625 336.375 369.65625 335.082031 L 369.65625 97.957031 C 369.652344 97.265625 369.589844 96.578125 369.46875 95.898438 Z M 330.140625 348.402344 L 119.320312 348.402344 C 118.457031 348.402344 117.601562 348.3125 116.753906 348.144531 C 115.90625 347.972656 115.085938 347.722656 114.285156 347.390625 C 113.488281 347.058594 112.730469 346.652344 112.011719 346.171875 C 111.292969 345.691406 110.628906 345.144531 110.019531 344.535156 C 109.40625 343.921875 108.863281 343.257812 108.382812 342.539062 C 107.902344 341.820312 107.496094 341.0625 107.164062 340.265625 C 106.832031 339.46875 106.578125 338.644531 106.410156 337.796875 C 106.238281 336.953125 106.152344 336.09375 106.148438 335.230469 L 106.148438 276.296875 L 127.253906 297.363281 C 128.390625 298.476562 129.6875 299.355469 131.144531 300 C 132.597656 300.644531 134.121094 301.011719 135.710938 301.105469 L 171.746094 303.425781 L 172.71875 303.425781 C 173.527344 303.371094 174.320312 303.242188 175.105469 303.039062 C 175.886719 302.835938 176.644531 302.566406 177.378906 302.222656 C 178.109375 301.882812 178.804688 301.476562 179.464844 301.007812 C 180.121094 300.539062 180.734375 300.011719 181.292969 299.429688 C 181.855469 298.847656 182.359375 298.21875 182.804688 297.546875 C 183.25 296.871094 183.632812 296.160156 183.945312 295.414062 C 184.261719 294.671875 184.503906 293.902344 184.679688 293.113281 C 184.851562 292.324219 184.953125 291.523438 184.980469 290.71875 C 185.007812 289.910156 184.957031 289.105469 184.835938 288.304688 C 184.714844 287.507812 184.523438 286.722656 184.257812 285.960938 C 183.992188 285.195312 183.660156 284.464844 183.257812 283.761719 C 182.859375 283.058594 182.394531 282.398438 181.875 281.78125 C 181.351562 281.164062 180.777344 280.597656 180.152344 280.085938 C 179.527344 279.574219 178.859375 279.125 178.148438 278.734375 C 177.441406 278.347656 176.703125 278.027344 175.933594 277.773438 C 175.164062 277.519531 174.378906 277.339844 173.578125 277.230469 L 142.484375 275.210938 L 37.710938 170.4375 L 58.402344 149.707031 L 166.917969 258.222656 C 167.53125 258.835938 168.203125 259.386719 168.921875 259.867188 C 169.644531 260.351562 170.410156 260.757812 171.210938 261.089844 C 172.011719 261.421875 172.839844 261.671875 173.691406 261.84375 C 174.542969 262.011719 175.40625 262.097656 176.273438 262.097656 C 177.140625 262.097656 178.003906 262.011719 178.855469 261.84375 C 179.707031 261.671875 180.535156 261.421875 181.335938 261.089844 C 182.140625 260.757812 182.902344 260.351562 183.625 259.867188 C 184.347656 259.386719 185.015625 258.835938 185.628906 258.222656 C 186.242188 257.609375 186.792969 256.941406 187.273438 256.21875 C 187.757812 255.496094 188.164062 254.734375 188.496094 253.929688 C 188.828125 253.128906 189.078125 252.300781 189.25 251.449219 C 189.417969 250.597656 189.503906 249.738281 189.503906 248.867188 C 189.503906 248 189.417969 247.136719 189.25 246.285156 C 189.078125 245.433594 188.828125 244.609375 188.496094 243.804688 C 188.164062 243.003906 187.757812 242.238281 187.273438 241.519531 C 186.792969 240.796875 186.242188 240.128906 185.628906 239.511719 L 106.148438 160.332031 L 106.148438 40.21875 C 106.148438 39.351562 106.234375 38.496094 106.402344 37.648438 C 106.570312 36.800781 106.820312 35.976562 107.152344 35.175781 C 107.484375 34.378906 107.890625 33.617188 108.371094 32.898438 C 108.851562 32.179688 109.394531 31.515625 110.007812 30.902344 C 110.621094 30.292969 111.285156 29.746094 112.003906 29.265625 C 112.722656 28.785156 113.480469 28.378906 114.28125 28.046875 C 115.078125 27.71875 115.902344 27.46875 116.75 27.300781 C 117.601562 27.128906 118.457031 27.046875 119.320312 27.046875 L 258.785156 27.046875 L 258.785156 98.144531 C 258.785156 99.007812 258.871094 99.863281 259.042969 100.710938 C 259.210938 101.558594 259.464844 102.378906 259.796875 103.175781 C 260.128906 103.976562 260.535156 104.734375 261.015625 105.453125 C 261.496094 106.167969 262.039062 106.835938 262.652344 107.445312 C 263.261719 108.054688 263.925781 108.601562 264.644531 109.082031 C 265.363281 109.5625 266.121094 109.96875 266.921875 110.300781 C 267.71875 110.632812 268.539062 110.882812 269.386719 111.054688 C 270.234375 111.226562 271.089844 111.3125 271.953125 111.3125 L 343.3125 111.3125 L 343.3125 335.082031 C 343.320312 335.953125 343.242188 336.816406 343.078125 337.671875 C 342.917969 338.523438 342.671875 339.355469 342.34375 340.164062 C 342.015625 340.96875 341.613281 341.734375 341.132812 342.460938 C 340.65625 343.1875 340.109375 343.863281 339.496094 344.480469 C 338.886719 345.101562 338.21875 345.652344 337.496094 346.140625 C 336.777344 346.628906 336.015625 347.039062 335.210938 347.375 C 334.410156 347.710938 333.582031 347.96875 332.726562 348.140625 C 331.875 348.3125 331.011719 348.402344 330.140625 348.402344 Z M 330.140625 348.402344 "/></g><path style=" stroke:none;fill-rule:nonzero;fill:#ffffff;fill-opacity:1;" d="M 309.449219 145.890625 L 214.21875 145.890625 C 213.429688 145.992188 212.65625 146.167969 211.898438 146.410156 C 211.140625 146.652344 210.414062 146.960938 209.710938 147.335938 C 209.011719 147.710938 208.347656 148.144531 207.726562 148.636719 C 207.105469 149.132812 206.53125 149.675781 206.007812 150.273438 C 205.480469 150.871094 205.015625 151.511719 204.605469 152.195312 C 204.199219 152.875 203.851562 153.589844 203.574219 154.332031 C 203.292969 155.074219 203.082031 155.839844 202.941406 156.621094 C 202.796875 157.402344 202.726562 158.191406 202.726562 158.988281 C 202.726562 159.78125 202.796875 160.570312 202.941406 161.351562 C 203.082031 162.132812 203.292969 162.898438 203.574219 163.640625 C 203.851562 164.382812 204.199219 165.097656 204.605469 165.777344 C 205.015625 166.460938 205.480469 167.101562 206.007812 167.699219 C 206.53125 168.296875 207.105469 168.839844 207.726562 169.335938 C 208.347656 169.828125 209.011719 170.261719 209.710938 170.636719 C 210.414062 171.011719 211.140625 171.320312 211.898438 171.5625 C 212.65625 171.808594 213.429688 171.980469 214.21875 172.082031 L 309.449219 172.082031 C 310.238281 171.980469 311.007812 171.808594 311.765625 171.5625 C 312.523438 171.320312 313.253906 171.011719 313.953125 170.636719 C 314.65625 170.261719 315.316406 169.828125 315.9375 169.335938 C 316.5625 168.839844 317.136719 168.296875 317.660156 167.699219 C 318.183594 167.101562 318.652344 166.460938 319.058594 165.777344 C 319.46875 165.097656 319.8125 164.382812 320.09375 163.640625 C 320.371094 162.898438 320.582031 162.132812 320.726562 161.351562 C 320.867188 160.570312 320.941406 159.78125 320.941406 158.988281 C 320.941406 158.191406 320.867188 157.402344 320.726562 156.621094 C 320.582031 155.839844 320.371094 155.078125 320.09375 154.332031 C 319.8125 153.589844 319.46875 152.875 319.058594 152.195312 C 318.652344 151.511719 318.183594 150.871094 317.660156 150.273438 C 317.136719 149.675781 316.5625 149.132812 315.9375 148.636719 C 315.316406 148.144531 314.65625 147.710938 313.953125 147.335938 C 313.253906 146.960938 312.523438 146.652344 311.765625 146.410156 C 311.007812 146.167969 310.238281 145.992188 309.449219 145.890625 Z M 309.449219 145.890625 "/><path style=" stroke:none;fill-rule:nonzero;fill:#ffffff;fill-opacity:1;" d="M 309.449219 205.949219 L 214.21875 205.949219 C 213.414062 206.035156 212.628906 206.191406 211.855469 206.421875 C 211.085938 206.652344 210.339844 206.949219 209.621094 207.316406 C 208.90625 207.683594 208.226562 208.113281 207.589844 208.605469 C 206.949219 209.097656 206.359375 209.640625 205.820312 210.242188 C 205.285156 210.839844 204.804688 211.484375 204.382812 212.171875 C 203.960938 212.859375 203.609375 213.578125 203.320312 214.332031 C 203.03125 215.082031 202.8125 215.855469 202.667969 216.648438 C 202.519531 217.441406 202.449219 218.238281 202.449219 219.042969 C 202.449219 219.851562 202.519531 220.648438 202.667969 221.441406 C 202.8125 222.234375 203.03125 223.007812 203.320312 223.757812 C 203.609375 224.511719 203.960938 225.230469 204.382812 225.917969 C 204.804688 226.605469 205.285156 227.25 205.820312 227.847656 C 206.359375 228.449219 206.949219 228.992188 207.589844 229.484375 C 208.226562 229.976562 208.90625 230.40625 209.621094 230.773438 C 210.339844 231.136719 211.085938 231.4375 211.855469 231.667969 C 212.628906 231.898438 213.414062 232.054688 214.21875 232.140625 L 309.449219 232.140625 C 310.25 232.054688 311.035156 231.898438 311.808594 231.667969 C 312.582031 231.4375 313.328125 231.136719 314.042969 230.773438 C 314.761719 230.40625 315.4375 229.976562 316.078125 229.484375 C 316.714844 228.992188 317.304688 228.449219 317.84375 227.847656 C 318.382812 227.25 318.863281 226.605469 319.28125 225.917969 C 319.703125 225.230469 320.058594 224.511719 320.347656 223.757812 C 320.632812 223.007812 320.851562 222.234375 321 221.441406 C 321.144531 220.648438 321.21875 219.851562 321.21875 219.042969 C 321.21875 218.238281 321.144531 217.441406 321 216.648438 C 320.851562 215.855469 320.632812 215.082031 320.347656 214.332031 C 320.058594 213.578125 319.703125 212.859375 319.28125 212.171875 C 318.863281 211.484375 318.382812 210.839844 317.84375 210.242188 C 317.304688 209.640625 316.714844 209.097656 316.078125 208.605469 C 315.4375 208.113281 314.761719 207.683594 314.042969 207.316406 C 313.328125 206.949219 312.582031 206.652344 311.808594 206.421875 C 311.035156 206.191406 310.25 206.035156 309.449219 205.949219 Z M 309.449219 205.949219 "/><path style=" stroke:none;fill-rule:nonzero;fill:#ffffff;fill-opacity:1;" d="M 309.449219 266.082031 L 214.21875 266.082031 C 213.429688 266.183594 212.65625 266.355469 211.898438 266.601562 C 211.140625 266.84375 210.414062 267.152344 209.710938 267.527344 C 209.011719 267.902344 208.347656 268.335938 207.726562 268.828125 C 207.105469 269.324219 206.53125 269.867188 206.007812 270.464844 C 205.480469 271.0625 205.015625 271.703125 204.605469 272.382812 C 204.199219 273.066406 203.855469 273.777344 203.574219 274.523438 C 203.292969 275.265625 203.082031 276.03125 202.941406 276.8125 C 202.796875 277.59375 202.726562 278.382812 202.726562 279.175781 C 202.726562 279.972656 202.796875 280.761719 202.941406 281.542969 C 203.082031 282.324219 203.292969 283.085938 203.574219 283.832031 C 203.855469 284.574219 204.199219 285.289062 204.605469 285.96875 C 205.015625 286.652344 205.480469 287.292969 206.007812 287.890625 C 206.53125 288.484375 207.105469 289.03125 207.726562 289.527344 C 208.347656 290.019531 209.011719 290.453125 209.710938 290.828125 C 210.414062 291.203125 211.140625 291.511719 211.898438 291.753906 C 212.65625 291.996094 213.429688 292.171875 214.21875 292.273438 L 309.449219 292.273438 C 310.238281 292.171875 311.007812 291.996094 311.765625 291.753906 C 312.523438 291.511719 313.253906 291.203125 313.953125 290.828125 C 314.65625 290.453125 315.316406 290.019531 315.9375 289.527344 C 316.5625 289.03125 317.136719 288.484375 317.660156 287.890625 C 318.183594 287.292969 318.648438 286.652344 319.058594 285.96875 C 319.46875 285.289062 319.8125 284.574219 320.09375 283.832031 C 320.371094 283.085938 320.582031 282.324219 320.726562 281.542969 C 320.867188 280.761719 320.941406 279.972656 320.941406 279.175781 C 320.941406 278.382812 320.867188 277.59375 320.726562 276.8125 C 320.582031 276.03125 320.371094 275.265625 320.09375 274.523438 C 319.8125 273.777344 319.46875 273.066406 319.058594 272.382812 C 318.648438 271.703125 318.183594 271.0625 317.660156 270.464844 C 317.136719 269.867188 316.5625 269.324219 315.9375 268.828125 C 315.316406 268.335938 314.65625 267.902344 313.953125 267.527344 C 313.253906 267.152344 312.523438 266.84375 311.765625 266.601562 C 311.007812 266.355469 310.238281 266.183594 309.449219 266.082031 Z M 309.449219 266.082031 "/></g></svg>