<svg xmlns="http://www.w3.org/2000/svg" xmlns:xlink="http://www.w3.org/1999/xlink" width="375" zoomAndPan="magnify" viewBox="0 0 281.25 281.249989" height="375" preserveAspectRatio="xMidYMid meet" version="1.0"><defs><clipPath id="c28d2626e0"><path d="M 4.078125 0 L 276.164062 0 L 276.164062 280.503906 L 4.078125 280.503906 Z M 4.078125 0 " clip-rule="nonzero"/></clipPath></defs><g clip-path="url(#c28d2626e0)"><path fill="#000000" d="M 276.363281 71.734375 L 276.199219 70.949219 C 276.03125 70.300781 275.808594 69.675781 275.527344 69.074219 C 275.527344 68.792969 275.246094 68.542969 275.105469 68.261719 C 274.75 67.6875 274.351562 67.144531 273.902344 66.636719 C 273.902344 66.636719 273.734375 66.386719 273.621094 66.273438 L 240.929688 33.667969 C 240.46875 33.207031 239.96875 32.796875 239.429688 32.4375 C 238.886719 32.078125 238.320312 31.773438 237.71875 31.523438 C 237.117188 31.277344 236.5 31.089844 235.859375 30.964844 C 235.222656 30.835938 234.582031 30.773438 233.933594 30.773438 C 233.285156 30.773438 232.636719 30.835938 232 30.964844 C 231.363281 31.089844 230.746094 31.277344 230.144531 31.523438 C 229.546875 31.773438 228.976562 32.078125 228.4375 32.4375 C 227.894531 32.796875 227.394531 33.207031 226.933594 33.667969 C 226.621094 34.011719 226.332031 34.375 226.066406 34.757812 C 226.066406 34.757812 225.785156 35.066406 225.675781 35.230469 C 225.179688 36.019531 224.800781 36.863281 224.542969 37.757812 C 224.28125 38.652344 224.152344 39.5625 224.152344 40.496094 C 224.152344 41.425781 224.28125 42.339844 224.542969 43.234375 C 224.800781 44.128906 225.179688 44.972656 225.675781 45.757812 C 225.675781 45.757812 225.675781 45.953125 225.84375 46.066406 C 226.070312 46.375 226.3125 46.675781 226.574219 46.960938 C 226.738281 47.15625 226.910156 47.40625 227.105469 47.605469 L 242.917969 63.417969 L 213.164062 63.417969 L 213.164062 11.246094 C 213.179688 10.949219 213.179688 10.648438 213.164062 10.347656 C 213.15625 9.007812 212.886719 7.71875 212.351562 6.488281 C 211.992188 5.59375 211.511719 4.769531 210.910156 4.015625 C 210.304688 3.257812 209.609375 2.605469 208.8125 2.058594 C 208.019531 1.507812 207.164062 1.085938 206.246094 0.785156 C 205.332031 0.484375 204.390625 0.324219 203.421875 0.300781 C 202.757812 0.308594 202.09375 0.375 201.433594 0.496094 L 89.253906 0.496094 C 88.285156 0.5 87.316406 0.550781 86.355469 0.644531 C 85.390625 0.742188 84.4375 0.886719 83.488281 1.074219 C 82.539062 1.265625 81.601562 1.5 80.671875 1.785156 C 79.746094 2.066406 78.839844 2.394531 77.945312 2.765625 C 77.050781 3.136719 76.175781 3.550781 75.324219 4.007812 C 74.46875 4.464844 73.640625 4.964844 72.835938 5.5 C 72.03125 6.039062 71.257812 6.617188 70.507812 7.230469 C 69.761719 7.84375 69.042969 8.496094 68.359375 9.179688 C 67.675781 9.867188 67.023438 10.582031 66.410156 11.332031 C 65.796875 12.078125 65.222656 12.855469 64.683594 13.664062 C 64.148438 14.464844 63.652344 15.296875 63.195312 16.148438 C 62.734375 17.003906 62.324219 17.878906 61.953125 18.773438 C 61.582031 19.667969 61.253906 20.574219 60.972656 21.503906 C 60.695312 22.429688 60.457031 23.367188 60.265625 24.316406 C 60.078125 25.265625 59.9375 26.222656 59.839844 27.183594 C 59.742188 28.148438 59.695312 29.113281 59.695312 30.082031 L 59.695312 100.226562 L 50.488281 91.015625 C 49.554688 90.109375 48.488281 89.410156 47.277344 88.925781 C 46.074219 88.441406 44.820312 88.203125 43.519531 88.21875 C 42.21875 88.207031 40.964844 88.445312 39.753906 88.929688 C 38.546875 89.414062 37.480469 90.109375 36.546875 91.015625 L 7.160156 120.488281 C 6.695312 120.945312 6.277344 121.441406 5.910156 121.984375 C 5.546875 122.519531 5.234375 123.089844 4.984375 123.691406 C 4.730469 124.292969 4.539062 124.914062 4.410156 125.550781 C 4.285156 126.191406 4.21875 126.835938 4.21875 127.488281 C 4.21875 128.140625 4.285156 128.785156 4.410156 129.421875 C 4.539062 130.0625 4.730469 130.683594 4.984375 131.285156 C 5.234375 131.882812 5.546875 132.453125 5.910156 132.992188 C 6.277344 133.53125 6.695312 134.03125 7.160156 134.484375 L 59.695312 186.9375 L 59.695312 250.644531 C 59.695312 251.609375 59.746094 252.574219 59.84375 253.539062 C 59.941406 254.5 60.082031 255.457031 60.273438 256.40625 C 60.460938 257.355469 60.699219 258.289062 60.980469 259.214844 C 61.261719 260.140625 61.589844 261.050781 61.960938 261.945312 C 62.332031 262.839844 62.746094 263.710938 63.203125 264.566406 C 63.660156 265.417969 64.15625 266.246094 64.695312 267.050781 C 65.230469 267.855469 65.808594 268.628906 66.421875 269.378906 C 67.035156 270.125 67.6875 270.84375 68.371094 271.527344 C 69.054688 272.210938 69.769531 272.859375 70.515625 273.476562 C 71.265625 274.089844 72.042969 274.664062 72.847656 275.203125 C 73.648438 275.738281 74.480469 276.234375 75.332031 276.695312 C 76.183594 277.152344 77.054688 277.566406 77.949219 277.9375 C 78.84375 278.308594 79.753906 278.632812 80.679688 278.914062 C 81.605469 279.195312 82.539062 279.433594 83.492188 279.621094 C 84.441406 279.8125 85.394531 279.957031 86.355469 280.050781 C 87.320312 280.148438 88.285156 280.199219 89.253906 280.199219 L 246.945312 280.199219 C 247.917969 280.199219 248.882812 280.152344 249.84375 280.054688 C 250.808594 279.957031 251.761719 279.816406 252.710938 279.628906 C 253.660156 279.4375 254.597656 279.203125 255.527344 278.921875 C 256.453125 278.640625 257.359375 278.3125 258.253906 277.941406 C 259.148438 277.570312 260.023438 277.160156 260.875 276.699219 C 261.730469 276.246094 262.558594 275.746094 263.363281 275.210938 C 264.164062 274.671875 264.941406 274.097656 265.691406 273.484375 C 266.4375 272.867188 267.15625 272.21875 267.839844 271.535156 C 268.523438 270.851562 269.171875 270.136719 269.789062 269.386719 C 270.402344 268.640625 270.976562 267.863281 271.515625 267.058594 C 272.050781 266.25 272.550781 265.425781 273.007812 264.570312 C 273.464844 263.71875 273.878906 262.84375 274.25 261.949219 C 274.617188 261.058594 274.945312 260.144531 275.226562 259.21875 C 275.507812 258.292969 275.742188 257.359375 275.933594 256.40625 C 276.121094 255.457031 276.265625 254.503906 276.363281 253.539062 C 276.457031 252.578125 276.503906 251.609375 276.503906 250.644531 L 276.503906 73.273438 C 276.5 72.753906 276.457031 72.242188 276.363281 71.734375 Z M 246.945312 260.605469 L 89.253906 260.605469 C 88.605469 260.605469 87.964844 260.539062 87.332031 260.414062 C 86.699219 260.285156 86.085938 260.097656 85.484375 259.851562 C 84.890625 259.601562 84.324219 259.296875 83.785156 258.9375 C 83.246094 258.578125 82.75 258.171875 82.296875 257.714844 C 81.835938 257.253906 81.429688 256.757812 81.070312 256.222656 C 80.710938 255.683594 80.40625 255.117188 80.160156 254.519531 C 79.910156 253.925781 79.722656 253.308594 79.59375 252.675781 C 79.46875 252.042969 79.402344 251.398438 79.398438 250.753906 L 79.398438 206.671875 L 95.1875 222.429688 C 96.035156 223.261719 97.007812 223.917969 98.097656 224.402344 C 99.183594 224.882812 100.324219 225.160156 101.511719 225.226562 L 128.46875 226.964844 L 129.195312 226.964844 C 129.800781 226.921875 130.390625 226.828125 130.980469 226.675781 C 131.5625 226.523438 132.132812 226.320312 132.679688 226.0625 C 133.226562 225.808594 133.746094 225.507812 134.242188 225.15625 C 134.730469 224.804688 135.191406 224.410156 135.609375 223.976562 C 136.027344 223.539062 136.40625 223.070312 136.738281 222.566406 C 137.070312 222.0625 137.359375 221.53125 137.59375 220.972656 C 137.828125 220.417969 138.011719 219.839844 138.140625 219.25 C 138.269531 218.660156 138.347656 218.0625 138.367188 217.460938 C 138.386719 216.855469 138.347656 216.253906 138.257812 215.652344 C 138.167969 215.058594 138.023438 214.46875 137.824219 213.898438 C 137.628906 213.328125 137.378906 212.78125 137.078125 212.253906 C 136.78125 211.730469 136.433594 211.234375 136.042969 210.773438 C 135.652344 210.3125 135.222656 209.886719 134.753906 209.503906 C 134.289062 209.121094 133.789062 208.785156 133.257812 208.496094 C 132.726562 208.207031 132.175781 207.964844 131.597656 207.777344 C 131.023438 207.585938 130.4375 207.453125 129.835938 207.371094 L 106.578125 205.859375 L 28.207031 127.488281 L 43.683594 111.980469 L 124.855469 193.152344 C 125.3125 193.609375 125.816406 194.023438 126.355469 194.382812 C 126.894531 194.746094 127.46875 195.046875 128.066406 195.296875 C 128.664062 195.546875 129.285156 195.730469 129.921875 195.859375 C 130.558594 195.984375 131.203125 196.050781 131.851562 196.050781 C 132.503906 196.050781 133.148438 195.984375 133.785156 195.859375 C 134.421875 195.730469 135.042969 195.546875 135.640625 195.296875 C 136.242188 195.046875 136.8125 194.746094 137.351562 194.382812 C 137.894531 194.023438 138.394531 193.609375 138.851562 193.152344 C 139.308594 192.691406 139.722656 192.195312 140.082031 191.652344 C 140.445312 191.113281 140.746094 190.542969 140.996094 189.941406 C 141.246094 189.339844 141.429688 188.722656 141.558594 188.085938 C 141.6875 187.449219 141.75 186.804688 141.75 186.152344 C 141.75 185.503906 141.6875 184.859375 141.558594 184.222656 C 141.429688 183.585938 141.246094 182.96875 140.996094 182.367188 C 140.746094 181.769531 140.445312 181.195312 140.082031 180.65625 C 139.722656 180.117188 139.308594 179.617188 138.851562 179.15625 L 79.398438 119.929688 L 79.398438 30.082031 C 79.398438 29.433594 79.464844 28.796875 79.589844 28.160156 C 79.714844 27.527344 79.902344 26.910156 80.152344 26.3125 C 80.398438 25.714844 80.703125 25.144531 81.0625 24.609375 C 81.421875 24.070312 81.828125 23.574219 82.285156 23.113281 C 82.746094 22.660156 83.242188 22.25 83.78125 21.890625 C 84.316406 21.53125 84.882812 21.226562 85.484375 20.980469 C 86.078125 20.734375 86.695312 20.546875 87.328125 20.421875 C 87.964844 20.292969 88.605469 20.230469 89.253906 20.230469 L 193.574219 20.230469 L 193.574219 73.414062 C 193.574219 74.058594 193.636719 74.699219 193.765625 75.332031 C 193.890625 75.964844 194.082031 76.578125 194.328125 77.175781 C 194.578125 77.773438 194.882812 78.34375 195.242188 78.878906 C 195.601562 79.414062 196.007812 79.914062 196.464844 80.371094 C 196.921875 80.824219 197.417969 81.234375 197.957031 81.59375 C 198.492188 81.953125 199.058594 82.257812 199.660156 82.503906 C 200.253906 82.753906 200.867188 82.941406 201.503906 83.070312 C 202.136719 83.199219 202.777344 83.261719 203.421875 83.261719 L 256.800781 83.261719 L 256.800781 250.644531 C 256.804688 251.292969 256.746094 251.941406 256.625 252.582031 C 256.503906 253.21875 256.320312 253.839844 256.074219 254.445312 C 255.828125 255.046875 255.527344 255.617188 255.167969 256.164062 C 254.8125 256.707031 254.402344 257.210938 253.945312 257.671875 C 253.488281 258.136719 252.988281 258.550781 252.449219 258.914062 C 251.910156 259.28125 251.339844 259.585938 250.738281 259.839844 C 250.140625 260.089844 249.519531 260.28125 248.882812 260.410156 C 248.246094 260.539062 247.597656 260.605469 246.945312 260.605469 Z M 246.945312 260.605469 " fill-opacity="1" fill-rule="nonzero"/></g><path fill="#000000" d="M 231.46875 109.128906 L 160.238281 109.128906 C 159.648438 109.203125 159.066406 109.335938 158.5 109.515625 C 157.933594 109.695312 157.390625 109.925781 156.863281 110.207031 C 156.34375 110.488281 155.84375 110.8125 155.378906 111.179688 C 154.914062 111.550781 154.488281 111.957031 154.09375 112.40625 C 153.699219 112.851562 153.351562 113.332031 153.046875 113.84375 C 152.742188 114.351562 152.480469 114.886719 152.273438 115.441406 C 152.0625 115.996094 151.90625 116.570312 151.800781 117.152344 C 151.691406 117.738281 151.640625 118.328125 151.640625 118.925781 C 151.640625 119.515625 151.691406 120.109375 151.800781 120.691406 C 151.90625 121.277344 152.0625 121.847656 152.273438 122.402344 C 152.480469 122.960938 152.742188 123.492188 153.046875 124.003906 C 153.351562 124.511719 153.699219 124.992188 154.09375 125.441406 C 154.488281 125.886719 154.914062 126.292969 155.378906 126.664062 C 155.84375 127.03125 156.34375 127.355469 156.863281 127.636719 C 157.390625 127.917969 157.933594 128.148438 158.5 128.328125 C 159.066406 128.515625 159.648438 128.640625 160.238281 128.71875 L 231.46875 128.71875 C 232.058594 128.640625 232.636719 128.515625 233.203125 128.328125 C 233.769531 128.148438 234.316406 127.917969 234.839844 127.636719 C 235.363281 127.355469 235.859375 127.03125 236.324219 126.664062 C 236.789062 126.292969 237.21875 125.886719 237.613281 125.441406 C 238.003906 124.992188 238.355469 124.511719 238.65625 124.003906 C 238.964844 123.492188 239.222656 122.960938 239.433594 122.402344 C 239.640625 121.847656 239.796875 121.277344 239.90625 120.691406 C 240.011719 120.109375 240.066406 119.515625 240.066406 118.925781 C 240.066406 118.328125 240.011719 117.738281 239.90625 117.152344 C 239.796875 116.570312 239.640625 116 239.433594 115.441406 C 239.222656 114.886719 238.964844 114.351562 238.65625 113.84375 C 238.355469 113.332031 238.003906 112.851562 237.613281 112.40625 C 237.21875 111.957031 236.789062 111.550781 236.324219 111.179688 C 235.859375 110.8125 235.363281 110.488281 234.839844 110.207031 C 234.316406 109.925781 233.769531 109.695312 233.203125 109.515625 C 232.636719 109.335938 232.058594 109.203125 231.46875 109.128906 Z M 231.46875 109.128906 " fill-opacity="1" fill-rule="nonzero"/><path fill="#000000" d="M 231.46875 154.050781 L 160.238281 154.050781 C 159.636719 154.117188 159.046875 154.230469 158.46875 154.40625 C 157.894531 154.578125 157.335938 154.800781 156.796875 155.074219 C 156.261719 155.347656 155.753906 155.667969 155.277344 156.039062 C 154.800781 156.40625 154.359375 156.8125 153.953125 157.261719 C 153.554688 157.710938 153.195312 158.191406 152.878906 158.707031 C 152.5625 159.21875 152.300781 159.757812 152.085938 160.320312 C 151.867188 160.882812 151.703125 161.460938 151.597656 162.054688 C 151.484375 162.648438 151.433594 163.242188 151.433594 163.84375 C 151.433594 164.449219 151.484375 165.046875 151.597656 165.640625 C 151.703125 166.234375 151.867188 166.8125 152.085938 167.371094 C 152.300781 167.9375 152.5625 168.472656 152.878906 168.988281 C 153.195312 169.503906 153.554688 169.984375 153.953125 170.429688 C 154.359375 170.882812 154.800781 171.289062 155.277344 171.65625 C 155.753906 172.023438 156.261719 172.34375 156.796875 172.621094 C 157.335938 172.890625 157.894531 173.117188 158.46875 173.289062 C 159.046875 173.460938 159.636719 173.578125 160.238281 173.640625 L 231.46875 173.640625 C 232.070312 173.578125 232.65625 173.460938 233.234375 173.289062 C 233.8125 173.117188 234.371094 172.890625 234.90625 172.621094 C 235.445312 172.34375 235.949219 172.023438 236.429688 171.65625 C 236.90625 171.289062 237.34375 170.882812 237.75 170.429688 C 238.152344 169.984375 238.511719 169.503906 238.824219 168.988281 C 239.140625 168.472656 239.40625 167.9375 239.621094 167.371094 C 239.835938 166.8125 240 166.234375 240.109375 165.640625 C 240.21875 165.046875 240.273438 164.449219 240.273438 163.84375 C 240.273438 163.242188 240.21875 162.648438 240.109375 162.054688 C 240 161.460938 239.835938 160.882812 239.621094 160.320312 C 239.40625 159.757812 239.140625 159.21875 238.824219 158.707031 C 238.511719 158.191406 238.152344 157.710938 237.75 157.261719 C 237.34375 156.8125 236.90625 156.40625 236.429688 156.039062 C 235.949219 155.667969 235.445312 155.347656 234.90625 155.074219 C 234.371094 154.800781 233.8125 154.578125 233.234375 154.40625 C 232.65625 154.230469 232.070312 154.117188 231.46875 154.050781 Z M 231.46875 154.050781 " fill-opacity="1" fill-rule="nonzero"/><path fill="#000000" d="M 231.46875 199.03125 L 160.238281 199.03125 C 159.648438 199.105469 159.066406 199.234375 158.5 199.417969 C 157.933594 199.601562 157.390625 199.832031 156.863281 200.113281 C 156.34375 200.390625 155.84375 200.714844 155.378906 201.085938 C 154.914062 201.457031 154.488281 201.863281 154.09375 202.308594 C 153.699219 202.757812 153.351562 203.234375 153.046875 203.742188 C 152.742188 204.253906 152.484375 204.785156 152.273438 205.34375 C 152.0625 205.898438 151.90625 206.472656 151.800781 207.058594 C 151.691406 207.640625 151.640625 208.230469 151.640625 208.824219 C 151.640625 209.421875 151.691406 210.011719 151.800781 210.59375 C 151.90625 211.179688 152.0625 211.75 152.273438 212.308594 C 152.484375 212.863281 152.742188 213.398438 153.046875 213.90625 C 153.351562 214.417969 153.699219 214.898438 154.09375 215.34375 C 154.488281 215.789062 154.914062 216.195312 155.378906 216.566406 C 155.84375 216.9375 156.34375 217.261719 156.863281 217.539062 C 157.390625 217.820312 157.933594 218.050781 158.5 218.234375 C 159.066406 218.414062 159.648438 218.546875 160.238281 218.621094 L 231.46875 218.621094 C 232.058594 218.546875 232.636719 218.414062 233.203125 218.234375 C 233.769531 218.050781 234.316406 217.820312 234.839844 217.539062 C 235.363281 217.261719 235.859375 216.9375 236.324219 216.566406 C 236.789062 216.195312 237.21875 215.789062 237.613281 215.34375 C 238.003906 214.898438 238.351562 214.417969 238.65625 213.90625 C 238.964844 213.398438 239.222656 212.863281 239.433594 212.308594 C 239.640625 211.75 239.796875 211.179688 239.90625 210.59375 C 240.011719 210.011719 240.066406 209.421875 240.066406 208.824219 C 240.066406 208.230469 240.011719 207.640625 239.90625 207.058594 C 239.796875 206.472656 239.640625 205.898438 239.433594 205.34375 C 239.222656 204.785156 238.964844 204.253906 238.65625 203.742188 C 238.351562 203.234375 238.003906 202.757812 237.613281 202.308594 C 237.21875 201.863281 236.789062 201.457031 236.324219 201.085938 C 235.859375 200.714844 235.363281 200.390625 234.839844 200.113281 C 234.316406 199.832031 233.769531 199.601562 233.203125 199.417969 C 232.636719 199.234375 232.058594 199.105469 231.46875 199.03125 Z M 231.46875 199.03125 " fill-opacity="1" fill-rule="nonzero"/></svg>